<svg width="43" height="43" viewBox="0 0 43 43" xmlns="http://www.w3.org/2000/svg"><title>7392C17F-459B-48D4-A168-12F211DB8825</title><g fill="#142D40"><path d="M39.246 0H3.754A3.757 3.757 0 0 0 0 3.754v35.492A3.755 3.755 0 0 0 3.754 43h31.253L43 35.007V3.754A3.757 3.757 0 0 0 39.246 0zm-5.688 2.787a2.019 2.019 0 1 1 0 4.038 2.019 2.019 0 0 1 0-4.038zm-6.03 0a2.02 2.02 0 1 1-.001 4.04 2.02 2.02 0 0 1 .001-4.04zm-6.028 0a2.02 2.02 0 1 1-.001 4.04 2.02 2.02 0 0 1 .001-4.04zm-6.028 0a2.02 2.02 0 1 1-.001 4.04 2.02 2.02 0 0 1 0-4.04zm-6.03 0a2.019 2.019 0 1 1 0 4.038 2.019 2.019 0 0 1 0-4.038zm31.51 31.371l-.424.425h-3.215a2.736 2.736 0 0 0-2.73 2.73v3.215l-.425.424H3.754c-.94 0-1.706-.765-1.706-1.706V9.214h38.904v24.944z"/><path d="M15.088 22.342c-.212.365-.54.797-.982 1.287-.442.492-1.062 1.096-1.858 1.813a20.1 20.1 0 0 0-1.34 1.314c-.488.522-.947 1.13-1.381 1.824a10.934 10.934 0 0 0-1.089 2.388C8.146 31.863 8 32.873 8 34h12v-3.488h-6.664c.23-.537.668-1.113 1.314-1.732.647-.616 1.43-1.38 2.35-2.293a20.067 20.067 0 0 0 1.447-1.503c.38-.446.686-.9.916-1.355.23-.458.389-.943.478-1.464.087-.52.132-1.136.132-1.851 0-.751-.088-1.45-.265-2.093a3.959 3.959 0 0 0-.93-1.677c-.441-.475-1.039-.85-1.791-1.127-.753-.277-1.695-.417-2.828-.417-4.035 0-6.053 1.905-6.053 5.715v.618h4.142c0-.36.01-.743.026-1.152.018-.41.08-.792.186-1.142.106-.348.275-.634.505-.858.23-.224.557-.336.982-.336.637 0 1.057.228 1.261.685.204.456.305 1.06.305 1.812 0 .358-.017.688-.053.993-.036.304-.16.64-.372 1.007zM26.577 34H31V15h-3.106c-.052.305-.153.63-.302.98-.147.348-.381.67-.697.966-.316.295-.74.54-1.277.738-.537.197-1.225.295-2.065.295H23v2.844h3.579V34h-.002z"/></g></svg>