<svg id="Layer_1" xmlns="http://www.w3.org/2000/svg" viewBox="0 0 12 12"><style>.st0{fill:#fff}</style><title>6796D07B-F16E-44ED-B3D4-5303A6895671</title><g id="Page-1"><g id="VGS-Landing-3.0.2-verstka" transform="translate(-1279 -35)"><g id="Header"><g id="Phone" transform="translate(1268 24)"><path id="Phone-Icon" class="st0" d="M13.8 11.3c.2 0 .4.1.6.2l.1.1 1.8 1.8c.2.2.3.4.3.6s-.1.5-.3.7l-.9.9c.3.7.7 1.3 1.2 1.8s1.1.9 1.8 1.2l.9-.9c.2-.2.4-.2.7-.2s.5.1.7.2v.1l1.8 1.8c.2.2.3.4.3.7s-.1.5-.3.7l-1.3 1.4c-.5.4-1 .5-1.5.3-2-.8-3.6-1.8-5-3.2-1.5-1.5-2.5-3.1-3.2-5-.2-.6-.1-1.1.4-1.5l1.4-1.4c.1-.2.3-.3.5-.3zm0 .9s-.1 0 0 0l-1.4 1.4c-.2.1-.2.3-.2.6.6 1.7 1.6 3.3 3 4.6 1.2 1.2 2.8 2.2 4.6 3 .3.1.5 0 .7-.1l1.3-1.3v-.1L20 18.4c0-.1-.1-.1-.1 0l-1.1 1.1-.2.2-.3-.1c-.8-.3-1.5-.8-2.2-1.4l-.1-.1c-.3-.3-.6-.6-.9-1s-.4-.7-.5-1l-.2-.4-.1-.3 1.3-1.3c.1 0 .1-.1.1-.1l-1.9-1.8c.1 0 0 0 0 0z"/></g></g></g></g></svg>